<svg xmlns="http://www.w3.org/2000/svg" width="24" height="24" fill="none" viewBox="0 0 24 24"><g clip-path="url(#clip0_19_116)"><path stroke="#000" stroke-linecap="round" stroke-linejoin="round" stroke-width="2" d="M8 19V21"/><path stroke="#000" stroke-linecap="round" stroke-linejoin="round" stroke-width="2" d="M8 13V15"/><path stroke="#000" stroke-linecap="round" stroke-linejoin="round" stroke-width="2" d="M16.0001 19V21"/><path stroke="#000" stroke-linecap="round" stroke-linejoin="round" stroke-width="2" d="M16.0001 13V15"/><path stroke="#000" stroke-linecap="round" stroke-linejoin="round" stroke-width="2" d="M12 21V23"/><path stroke="#000" stroke-linecap="round" stroke-linejoin="round" stroke-width="2" d="M12 15V17"/><path stroke="#000" stroke-linecap="round" stroke-linejoin="round" stroke-width="2" d="M20 16.58C21.0513 16.1195 21.9121 15.3115 22.4381 14.2915C22.9641 13.2715 23.1232 12.1016 22.8886 10.9781C22.6541 9.85472 22.0402 8.84617 21.1501 8.12179C20.2599 7.39742 19.1477 7.00131 18 6.99996H16.74C16.4231 5.77248 15.8189 4.63791 14.9773 3.68976C14.1358 2.74161 13.081 2.00703 11.8998 1.54658C10.7186 1.08612 9.44494 0.912974 8.18372 1.0414C6.92249 1.16983 5.70984 1.59615 4.64573 2.28524C3.58161 2.97433 2.6965 3.90644 2.06334 5.00475C1.43018 6.10307 1.06711 7.33613 1.00404 8.60231C0.940984 9.86848 1.17974 11.1315 1.70064 12.2873C2.22153 13.4431 3.00965 14.4585 4.00003 15.25"/></g><defs><clipPath id="clip0_19_116"><rect width="24" height="24" fill="#fff"/></clipPath></defs></svg>